{
  "source": "C:\\Users\\Peter\\Desktop\\stuff\\MIUN\\quantitative_research\\video_compression\\videos\\BVI-HD\\RockWater_1920x1080_30fps.mp4",
  "output": "C:\\Users\\Peter\\Desktop\\stuff\\MIUN\\quantitative_research\\video_compression\\compressed_videos\\BVI-HD\\av1\\8\\RockWater_1920x1080_30fps_av1.mkv",
  "codec": "av1",
  "ok": "Input #0, mov,mp4,m4a,3gp,3g2,mj2, from 'C:\\Users\\Peter\\Desktop\\stuff\\MIUN\\quantitative_research\\video_compression\\videos\\BVI-HD\\RockWater_1920x1080_30fps.mp4':\n  Metadata:\n    major_brand     : isom\n    minor_version   : 512\n    compatible_brands: isomiso2avc1mp41\n    encoder         : Lavf54.28.101\n  Duration: 00:00:05.00, start: 0.000000, bitrate: 245943 kb/s\n  Stream #0:0[0x1](und): Video: h264 (High 4:4:4 Predictive) (avc1 / 0x31637661), yuv420p(progressive), 1920x1080, 245940 kb/s, 30 fps, 30 tbr, 30 tbn (default)\n    Metadata:\n      handler_name    : VideoHandler\n      vendor_id       : [0][0][0][0]\n[out#0/matroska @ 000001b84d700d00] Codec AVOption b:a (set bitrate (in bits/s)) has not been used for any stream. The most likely reason is either wrong type (e.g. a video option with no video streams) or that it is a private option of some decoder which was not actually used for any stream.\nStream mapping:\n  Stream #0:0 -> #0:0 (h264 (native) -> av1 (libsvtav1))\nPress [q] to stop, [?] for help\nSvt[info]: -------------------------------------------\nSvt[info]: SVT [version]:\tSVT-AV1 Encoder Lib v3.1.0-19-g6ecfe8ec\nSvt[info]: SVT [build]  :\tGCC 15.2.0\t 64 bit\nSvt[info]: LIB Build date: Aug 17 2025 11:37:13\nSvt[info]: -------------------------------------------\nSvt[info]: Level of Parallelism: 5\nSvt[info]: Number of PPCS 93\nSvt[info]: [asm level on system : up to avx2]\nSvt[info]: [asm level selected : up to avx2]\nSvt[info]: -------------------------------------------\nSvt[info]: SVT [config]: main profile\ttier (auto)\tlevel (auto)\nSvt[info]: SVT [config]: width / height / fps numerator / fps denominator \t\t: 1920 / 1080 / 30 / 1\nSvt[info]: SVT [config]: bit-depth / color format \t\t\t\t\t: 8 / YUV420\nSvt[info]: SVT [config]: preset / tune / pred struct \t\t\t\t\t: 4 / PSNR / random access\nSvt[info]: SVT [config]: gop size / mini-gop size / key-frame type \t\t\t: 161 / 16 / key frame\nSvt[info]: SVT [config]: BRC mode / target bitrate (kbps)\t\t\t\t: VBR / 8000 \nSvt[info]: SVT [config]: AQ mode / Variance Boost \t\t\t\t\t: 2 / 0\nSvt[info]: SVT [config]: sharpness / luminance-based QP bias \t\t\t\t: 0 / 0\nSvt[info]: SVT [config]: QP scale compress strength \t\t\t\t\t: 0\nSvt[info]: -------------------------------------------\nOutput #0, matroska, to 'C:\\Users\\Peter\\Desktop\\stuff\\MIUN\\quantitative_research\\video_compression\\compressed_videos\\BVI-HD\\av1\\8\\RockWater_1920x1080_30fps_av1.mkv':\n  Metadata:\n    major_brand     : isom\n    minor_version   : 512\n    compatible_brands: isomiso2avc1mp41\n    encoder         : Lavf62.3.100\n  Stream #0:0(und): Video: av1 (AV01 / 0x31305641), yuv420p(tv, progressive), 1920x1080, q=2-31, 8000 kb/s, 30 fps, 1k tbn (default)\n    Metadata:\n      encoder         : Lavc62.11.100 libsvtav1\n      handler_name    : VideoHandler\n      vendor_id       : [0][0][0][0]\n    Side data:\n      cpb: bitrate max/min/avg: 0/0/8000000 buffer size: 8000000 vbv_delay: N/A\nframe=    0 fps=0.0 q=0.0 size=       0KiB time=N/A bitrate=N/A speed=N/A elapsed=0:00:01.02    \nframe=    0 fps=0.0 q=0.0 size=       0KiB time=N/A bitrate=N/A speed=N/A elapsed=0:00:01.55    \nframe=    0 fps=0.0 q=0.0 size=       0KiB time=N/A bitrate=N/A speed=N/A elapsed=0:00:02.07    \nframe=    0 fps=0.0 q=0.0 size=       0KiB time=N/A bitrate=N/A speed=N/A elapsed=0:00:02.58    \nframe=    0 fps=0.0 q=0.0 size=       0KiB time=N/A bitrate=N/A speed=N/A elapsed=0:00:03.11    \nframe=    0 fps=0.0 q=0.0 size=       0KiB time=N/A bitrate=N/A speed=N/A elapsed=0:00:03.61    \nframe=    1 fps=0.2 q=19.0 size=       1KiB time=00:00:00.00 bitrate=N/A speed=   0x elapsed=0:00:04.13    \nframe=    1 fps=0.2 q=19.0 size=       1KiB time=00:00:00.00 bitrate=N/A speed=   0x elapsed=0:00:04.65    \nframe=    2 fps=0.4 q=31.0 size=       1KiB time=00:00:00.03 bitrate= 171.1kbits/s speed=0.00646x elapsed=0:00:05.16    \nframe=    6 fps=1.1 q=30.0 size=       1KiB time=00:00:00.16 bitrate=  34.2kbits/s speed=0.0294x elapsed=0:00:05.67    \nframe=    7 fps=1.1 q=28.0 size=       1KiB time=00:00:00.20 bitrate=  28.5kbits/s speed=0.0323x elapsed=0:00:06.19    \nframe=   10 fps=1.5 q=27.0 size=       1KiB time=00:00:00.30 bitrate=  19.0kbits/s speed=0.0447x elapsed=0:00:06.71    \nframe=   13 fps=1.8 q=26.0 size=       1KiB time=00:00:00.40 bitrate=  14.3kbits/s speed=0.0553x elapsed=0:00:07.22    \nframe=   18 fps=2.3 q=31.0 size=       1KiB time=00:00:00.56 bitrate=  10.1kbits/s speed=0.0731x elapsed=0:00:07.75    \nframe=   21 fps=2.5 q=27.0 size=       1KiB time=00:00:00.66 bitrate=   8.6kbits/s speed=0.0807x elapsed=0:00:08.26    \nframe=   23 fps=2.6 q=29.0 size=       1KiB time=00:00:00.73 bitrate=   7.8kbits/s speed=0.0836x elapsed=0:00:08.77    \nframe=   26 fps=2.8 q=31.0 size=       1KiB time=00:00:00.83 bitrate=   6.8kbits/s speed=0.0897x elapsed=0:00:09.29    \nframe=   29 fps=3.0 q=25.0 size=       1KiB time=00:00:00.93 bitrate=   6.1kbits/s speed=0.0952x elapsed=0:00:09.80    \nframe=   34 fps=3.3 q=31.0 size=       1KiB time=00:00:01.10 bitrate=   5.2kbits/s speed=0.107x elapsed=0:00:10.31    \nframe=   37 fps=3.4 q=28.0 size=       1KiB time=00:00:01.20 bitrate=   4.8kbits/s speed=0.111x elapsed=0:00:10.83    \nframe=   39 fps=3.4 q=30.0 size=       1KiB time=00:00:01.26 bitrate=   4.5kbits/s speed=0.112x elapsed=0:00:11.34    \nframe=   42 fps=3.5 q=31.0 size=       1KiB time=00:00:01.36 bitrate=   4.2kbits/s speed=0.115x elapsed=0:00:11.87    \nframe=   45 fps=3.6 q=26.0 size=       1KiB time=00:00:01.46 bitrate=   3.9kbits/s speed=0.118x elapsed=0:00:12.38    \nframe=   50 fps=3.9 q=34.0 size=       1KiB time=00:00:01.63 bitrate=   3.5kbits/s speed=0.126x elapsed=0:00:12.91    \nframe=   55 fps=4.1 q=32.0 size=       1KiB time=00:00:01.80 bitrate=   3.2kbits/s speed=0.134x elapsed=0:00:13.42    \nframe=   57 fps=4.1 q=26.0 size=       1KiB time=00:00:01.86 bitrate=   3.1kbits/s speed=0.134x elapsed=0:00:13.94    \nframe=   61 fps=4.2 q=29.0 size=       1KiB time=00:00:02.00 bitrate=   2.9kbits/s speed=0.138x elapsed=0:00:14.46    \nframe=   69 fps=4.6 q=32.0 size=       1KiB time=00:00:02.26 bitrate=   2.5kbits/s speed=0.151x elapsed=0:00:14.98    \nframe=   73 fps=4.7 q=29.0 size=       1KiB time=00:00:02.40 bitrate=   2.4kbits/s speed=0.155x elapsed=0:00:15.48    \nframe=   81 fps=5.1 q=24.0 size=       1KiB time=00:00:02.66 bitrate=   2.1kbits/s speed=0.167x elapsed=0:00:16.00    \nframe=   89 fps=5.4 q=30.0 size=       1KiB time=00:00:02.93 bitrate=   1.9kbits/s speed=0.178x elapsed=0:00:16.52    \nframe=   93 fps=5.5 q=33.0 size=       1KiB time=00:00:03.06 bitrate=   1.9kbits/s speed=0.18x elapsed=0:00:17.04    \nframe=  101 fps=5.8 q=34.0 size=       1KiB time=00:00:03.33 bitrate=   1.7kbits/s speed=0.19x elapsed=0:00:17.55    \nframe=  105 fps=5.8 q=33.0 size=       1KiB time=00:00:03.46 bitrate=   1.6kbits/s speed=0.192x elapsed=0:00:18.06    \nframe=  109 fps=5.9 q=31.0 size=       1KiB time=00:00:03.60 bitrate=   1.6kbits/s speed=0.194x elapsed=0:00:18.58    \nframe=  117 fps=6.1 q=33.0 size=       1KiB time=00:00:03.86 bitrate=   1.5kbits/s speed=0.202x elapsed=0:00:19.10    \nframe=  121 fps=6.2 q=31.0 size=       1KiB time=00:00:04.00 bitrate=   1.4kbits/s speed=0.204x elapsed=0:00:19.62    \nframe=  125 fps=6.2 q=33.0 size=       1KiB time=00:00:04.13 bitrate=   1.4kbits/s speed=0.205x elapsed=0:00:20.13    \nframe=  129 fps=6.2 q=26.0 size=       1KiB time=00:00:04.26 bitrate=   1.3kbits/s speed=0.207x elapsed=0:00:20.64    \nframe=  133 fps=6.3 q=35.0 size=       1KiB time=00:00:04.40 bitrate=   1.3kbits/s speed=0.208x elapsed=0:00:21.16    \nframe=  137 fps=6.3 q=33.0 size=       1KiB time=00:00:04.53 bitrate=   1.3kbits/s speed=0.209x elapsed=0:00:21.68    \nframe=  139 fps=6.3 q=35.0 size=       1KiB time=00:00:04.60 bitrate=   1.2kbits/s speed=0.207x elapsed=0:00:22.19    \nframe=  143 fps=6.3 q=35.0 size=       1KiB time=00:00:04.73 bitrate=   1.2kbits/s speed=0.208x elapsed=0:00:22.70    \n[out#0/matroska @ 000001b84d700d00] video:4784KiB audio:0KiB subtitle:0KiB other streams:0KiB global headers:0KiB muxing overhead: 0.030761%\nframe=  150 fps=6.6 q=35.0 Lsize=    4786KiB time=00:00:04.96 bitrate=7893.5kbits/s speed=0.218x elapsed=0:00:22.77    \n",
  "seconds": 23.174336910247803,
  "probe_out": {}
}